<?xml version="1.0" encoding="iso-8859-1"?>
<!-- Generator: Adobe Illustrator 19.0.0, SVG Export Plug-In . SVG Version: 6.00 Build 0)  -->
<svg version="1.1" id="Capa_1" xmlns="http://www.w3.org/2000/svg" xmlns:xlink="http://www.w3.org/1999/xlink" x="0px" y="0px"
	 viewBox="0 0 512 512" style="enable-background:new 0 0 512 512;fill:#FFFFFF;" xml:space="preserve">
<g>
	<g>
		<circle cx="91" cy="285" r="15"/>
	</g>
</g>
<g>
	<g>
		<circle cx="151" cy="285" r="15"/>
	</g>
</g>
<g>
	<g>
		<circle cx="211" cy="285" r="15"/>
	</g>
</g>
<g>
	<g>
		<path d="M451,30H301c-19.555,0-36.228,12.542-42.42,30H166V45c0-24.813-20.187-45-45-45S76,20.187,76,45v15H61
			c-24.813,0-45,20.187-45,45v240c0,24.813,20.187,45,45,45h135v33.509c-34.192,6.968-60,37.271-60,73.491c0,8.284,6.716,15,15,15
			h180c8.284,0,15-6.716,15-15c0-36.219-25.808-66.522-60-73.491V390h135c24.813,0,45-20.187,45-45v-77.58
			c17.459-6.192,30-22.865,30-42.42V75C496,50.187,475.813,30,451,30z M106,45c0-8.271,6.729-15,15-15s15,6.729,15,15v15h-30V45z
			 M313.43,482H168.57c6.191-17.461,22.874-30,42.43-30h60C290.557,452,307.239,464.539,313.43,482z M226,422v-32h30v32H226z
			 M436,345c0,8.271-6.729,15-15,15c-10.385,0-342.625,0-360,0c-8.271,0-15-6.729-15-15V105c0-8.271,6.729-15,15-15
			c9.759,0,186.164,0,195,0v135c0,24.813,20.187,45,45,45h135V345z M466,225c0,8.271-6.729,15-15,15H301c-8.271,0-15-6.729-15-15V75
			c0-8.271,6.729-15,15-15h150c8.271,0,15,6.729,15,15V225z"/>
	</g>
</g>
<g>
	<g>
		<path d="M376,90c-33.084,0-60,26.916-60,60s26.916,60,60,60s60-26.916,60-60S409.084,90,376,90z M376,180
			c-16.542,0-30-13.458-30-30s13.458-30,30-30s30,13.458,30,30S392.542,180,376,180z"/>
	</g>
</g>
<g>
	<g>
		<path d="M211,120H91c-8.284,0-15,6.716-15,15v90c0,8.284,6.716,15,15,15h120c8.284,0,15-6.716,15-15v-90
			C226,126.716,219.284,120,211,120z M196,210h-90v-60h90V210z"/>
	</g>
</g>
<g>
</g>
<g>
</g>
<g>
</g>
<g>
</g>
<g>
</g>
<g>
</g>
<g>
</g>
<g>
</g>
<g>
</g>
<g>
</g>
<g>
</g>
<g>
</g>
<g>
</g>
<g>
</g>
<g>
</g>
</svg>
