<svg id="Capa_1" fill="white" enable-background="new 0 0 512 512" height="512" viewBox="0 0 512 512" width="512" xmlns="http://www.w3.org/2000/svg"><g><g><path d="m48.781 306.214c4.142 0 7.5-3.358 7.5-7.5v-117.873c0-17.92 14.58-32.5 32.5-32.5h334.167c17.921 0 32.5 14.58 32.5 32.541l.271 50.082c.023 4.143 3.435 7.476 7.541 7.459 4.142-.022 7.481-3.398 7.459-7.541l-.271-50.041c0-26.191-21.309-47.5-47.5-47.5h-38.363v-125.841c0-4.142-3.357-7.5-7.5-7.5h-242.44c-4.142 0-7.5 3.358-7.5 7.5v125.841h-38.364c-26.191 0-47.5 21.309-47.5 47.5v117.873c0 4.142 3.358 7.5 7.5 7.5zm93.364-291.214h227.439v118.341h-15.305v-95.536c0-4.142-3.357-7.5-7.5-7.5h-132.415c-4.142 0-7.5 3.358-7.5 7.5s3.358 7.5 7.5 7.5h124.915v88.037h-166.829v-88.037h6.892c4.142 0 7.5-3.358 7.5-7.5s-3.358-7.5-7.5-7.5h-14.392c-4.142 0-7.5 3.358-7.5 7.5v95.537h-15.305z"/><path d="m462.947 258.429c-4.143 0-7.5 3.358-7.5 7.5v198.571c0 17.92-14.579 32.5-32.5 32.5h-334.166c-17.92 0-32.5-14.58-32.5-32.5v-130.763c0-4.142-3.358-7.5-7.5-7.5s-7.5 3.358-7.5 7.5v130.763c0 26.191 21.309 47.5 47.5 47.5h334.167c26.191 0 47.5-21.309 47.5-47.5v-198.571c-.001-4.142-3.358-7.5-7.501-7.5z"/><path d="m89.086 481.695h333.557c9.649 0 17.5-7.851 17.5-17.5v-197.185c0-9.649-7.851-17.5-17.5-17.5h-96.678c-20.089-13.394-44.197-21.213-70.1-21.213s-50.011 7.819-70.1 21.213h-96.679c-9.649 0-17.5 7.851-17.5 17.5v197.185c0 9.65 7.851 17.5 17.5 17.5zm333.557-217.185c1.379 0 2.5 1.122 2.5 2.5v197.185c0 1.378-1.121 2.5-2.5 2.5h-107.031c39.815-21.383 66.951-63.429 66.951-111.699 0-35.413-14.61-67.473-38.112-90.486zm-55.079 90.486c0 61.591-50.108 111.699-111.699 111.699s-111.699-50.108-111.699-111.699 50.108-111.699 111.699-111.699c61.59 0 111.699 50.108 111.699 111.699zm-280.978-87.986c0-1.378 1.122-2.5 2.5-2.5h78.191c-23.502 23.013-38.112 55.073-38.112 90.486 0 48.27 27.136 90.316 66.951 111.699h-107.03c-1.378 0-2.5-1.122-2.5-2.5z"/><path d="m89.014 239.256h24.447c9.649 0 17.5-7.851 17.5-17.5v-40.609c0-9.649-7.851-17.5-17.5-17.5h-24.447c-9.649 0-17.5 7.851-17.5 17.5v40.609c0 9.649 7.85 17.5 17.5 17.5zm-2.5-58.11c0-1.378 1.122-2.5 2.5-2.5h24.447c1.378 0 2.5 1.122 2.5 2.5v40.609c0 1.378-1.122 2.5-2.5 2.5h-24.447c-1.378 0-2.5-1.122-2.5-2.5z"/><path d="m440.143 181.146c0-9.649-7.851-17.5-17.5-17.5h-81.017c-9.649 0-17.5 7.851-17.5 17.5v40.609c0 9.649 7.851 17.5 17.5 17.5h81.017c9.649 0 17.5-7.851 17.5-17.5zm-15 40.61c0 1.378-1.121 2.5-2.5 2.5h-81.017c-1.379 0-2.5-1.122-2.5-2.5v-40.609c0-1.378 1.121-2.5 2.5-2.5h81.017c1.379 0 2.5 1.122 2.5 2.5z"/><path d="m293.669 171.146c0-4.142-3.357-7.5-7.5-7.5h-60.609c-4.142 0-7.5 3.358-7.5 7.5s3.358 7.5 7.5 7.5h60.609c4.143 0 7.5-3.357 7.5-7.5z"/><path d="m235.661 193.951c-4.142 0-7.5 3.358-7.5 7.5s3.358 7.5 7.5 7.5h40.406c4.143 0 7.5-3.358 7.5-7.5s-3.357-7.5-7.5-7.5z"/><path d="m255.864 429.026c40.82 0 74.029-33.209 74.029-74.03s-33.209-74.03-74.029-74.03-74.03 33.209-74.03 74.03 33.21 74.03 74.03 74.03zm0-133.06c32.549 0 59.029 26.48 59.029 59.03s-26.48 59.03-59.029 59.03-59.03-26.48-59.03-59.03 26.481-59.03 59.03-59.03z"/><path d="m255.864 395.761c22.478 0 40.765-18.287 40.765-40.765s-18.287-40.765-40.765-40.765-40.764 18.287-40.764 40.765 18.287 40.765 40.764 40.765zm0-66.53c14.207 0 25.765 11.558 25.765 25.765s-11.558 25.765-25.765 25.765-25.765-11.558-25.765-25.765c.001-14.207 11.559-25.765 25.765-25.765z"/><path d="m403.348 122.077h15.152c4.143 0 7.5-3.358 7.5-7.5s-3.357-7.5-7.5-7.5h-7.652v-7.652c0-4.142-3.357-7.5-7.5-7.5s-7.5 3.358-7.5 7.5v15.152c0 4.142 3.357 7.5 7.5 7.5z"/><path d="m93.228 122.077h15.152c4.142 0 7.5-3.358 7.5-7.5v-15.152c0-4.142-3.358-7.5-7.5-7.5s-7.5 3.358-7.5 7.5v7.652h-7.652c-4.142 0-7.5 3.358-7.5 7.5s3.358 7.5 7.5 7.5z"/></g></g></svg>