<?xml version="1.0" encoding="iso-8859-1"?>
<!-- Generator: Adobe Illustrator 19.0.0, SVG Export Plug-In . SVG Version: 6.00 Build 0)  -->
<svg version="1.1" id="Layer_1" xmlns="http://www.w3.org/2000/svg" xmlns:xlink="http://www.w3.org/1999/xlink" x="0px" y="0px"
	 viewBox="0 0 512 512" style="enable-background:new 0 0 512 512; fill:#FFFFFF" xml:space="preserve">
<g>
	<g>
		<path d="M428.698,31.492H322.01L300.677,0h-89.353l-21.333,31.492H83.302c-21.006,0-38.095,17.089-38.095,38.095v289.524
			c0,21.006,17.089,38.095,38.095,38.095v-15.238c-12.603,0-22.857-10.253-22.857-22.857V180.825h79.251
			c-2.002,8.654-3.061,17.666-3.061,26.921c0,65.818,53.547,119.365,119.365,119.365s119.365-53.547,119.365-119.365
			c0-9.255-1.059-18.266-3.061-26.921h79.251v178.286c0,12.604-10.254,22.857-22.857,22.857v15.238
			c21.006,0,38.095-17.089,38.095-38.095V69.587C466.794,48.581,449.705,31.492,428.698,31.492z M256,311.873
			c-57.416,0-104.127-46.711-104.127-104.127S198.584,103.619,256,103.619s104.127,46.711,104.127,104.127
			S313.416,311.873,256,311.873z M451.556,165.587h-83.887C350.595,120.514,306.984,88.381,256,88.381
			s-94.595,32.133-111.669,77.206H60.444v-96c0-12.604,10.254-22.857,22.857-22.857h114.772l21.333-31.492h73.187l21.333,31.492
			h114.771c12.603,0,22.857,10.253,22.857,22.857V165.587z"/>
	</g>
</g>
<g>
	<g>
		<rect x="87.873" y="342.349" width="336.254" height="15.238"/>
	</g>
</g>
<g>
	<g>
		<polygon points="390.603,368.254 390.603,496.762 121.397,496.762 121.397,368.254 106.159,368.254 106.159,512 405.841,512 
			405.841,368.254 		"/>
	</g>
</g>
<g>
	<g>
		<path d="M76.698,65.016v45.714h91.429V65.016H76.698z M152.889,95.492H91.937V80.254h60.952V95.492z"/>
	</g>
</g>
<g>
	<g>
		<path d="M420.064,66.54h-35.556c-9.802,0-17.778,7.976-17.778,17.778v35.556c0,9.802,7.976,17.778,17.778,17.778h35.556
			c9.802,0,17.778-7.976,17.778-17.778V84.317C437.841,74.515,429.866,66.54,420.064,66.54z M422.603,119.873
			c0,1.4-1.139,2.54-2.54,2.54h-35.556c-1.401,0-2.54-1.14-2.54-2.54V84.317c0-1.4,1.139-2.54,2.54-2.54h35.556
			c1.401,0,2.54,1.14,2.54,2.54V119.873z"/>
	</g>
</g>
<g>
	<g>
		<rect x="89.397" y="7.111" width="50.794" height="15.238"/>
	</g>
</g>
<g>
	<g>
		<path d="M108.698,271.238c-12.603,0-22.857,10.253-22.857,22.857s10.254,22.857,22.857,22.857s22.857-10.253,22.857-22.857
			S121.301,271.238,108.698,271.238z M108.698,301.714c-4.202,0-7.619-3.417-7.619-7.619c0-4.202,3.417-7.619,7.619-7.619
			s7.619,3.417,7.619,7.619C116.317,298.297,112.9,301.714,108.698,301.714z"/>
	</g>
</g>
<g>
	<g>
		<path d="M256,118.857c-49.014,0-88.889,39.875-88.889,88.889s39.875,88.889,88.889,88.889s88.889-39.875,88.889-88.889
			S305.014,118.857,256,118.857z M256,281.397c-40.612,0-73.651-33.039-73.651-73.651s33.039-73.651,73.651-73.651
			s73.651,33.039,73.651,73.651S296.612,281.397,256,281.397z"/>
	</g>
</g>
<g>
	<g>
		<path d="M268.698,26.413h-25.397c-12.884,0-23.365,10.482-23.365,23.365s10.481,23.365,23.365,23.365h25.397
			c12.884,0,23.365-10.482,23.365-23.365S281.583,26.413,268.698,26.413z M268.698,57.905h-25.397c-4.481,0-8.127-3.646-8.127-8.127
			s3.646-8.127,8.127-8.127h25.397c4.481,0,8.127,3.646,8.127,8.127S273.179,57.905,268.698,57.905z"/>
	</g>
</g>
<g>
	<g>
		<polygon points="358.095,368.254 358.095,423.619 153.905,423.619 153.905,368.254 138.667,368.254 138.667,438.857 
			373.333,438.857 373.333,368.254 		"/>
	</g>
</g>
<g>
</g>
<g>
</g>
<g>
</g>
<g>
</g>
<g>
</g>
<g>
</g>
<g>
</g>
<g>
</g>
<g>
</g>
<g>
</g>
<g>
</g>
<g>
</g>
<g>
</g>
<g>
</g>
<g>
</g>
</svg>
