<svg id="_x31_" fill="white" enable-background="new 0 0 24 24" height="512" viewBox="0 0 24 24" width="512" xmlns="http://www.w3.org/2000/svg"><g><path d="m19 10h-14c-1.103 0-2-.897-2-2v-6c0-1.103.897-2 2-2h14c1.103 0 2 .897 2 2v6c0 1.103-.897 2-2 2zm-14-9c-.551 0-1 .448-1 1v6c0 .552.449 1 1 1h14c.551 0 1-.448 1-1v-6c0-.552-.449-1-1-1z"/></g><g><path d="m13 24h-2c-.551 0-1-.448-1-1v-7c0-.552.449-1 1-1h2c.551 0 1 .448 1 1v7c0 .552-.449 1-1 1zm0-1v.5zm-2-7v7h2v-7z"/></g><g><path d="m12 16c-.276 0-.5-.224-.5-.5v-3c0-.276.224-.5.5-.5s.5.224.5.5v3c0 .276-.224.5-.5.5z"/></g><g><path d="m14.5 13h-5c-.827 0-1.5-.673-1.5-1.5v-2c0-.276.224-.5.5-.5h7c.276 0 .5.224.5.5v2c0 .827-.673 1.5-1.5 1.5zm-5.5-3v1.5c0 .275.224.5.5.5h5c.276 0 .5-.225.5-.5v-1.5z"/></g><g><path d="m3.5 8.5c-.276 0-.5-.224-.5-.5 0-.827.673-1.5 1.5-1.5.276 0 .5-.225.5-.5v-2c0-.275-.224-.5-.5-.5-.827 0-1.5-.673-1.5-1.5 0-.276.224-.5.5-.5s.5.224.5.5c0 .275.224.5.5.5.827 0 1.5.673 1.5 1.5v2c0 .827-.673 1.5-1.5 1.5-.276 0-.5.225-.5.5 0 .276-.224.5-.5.5z"/></g></svg>