<svg height="512" fill="white" viewBox="0 0 512 512" width="512" xmlns="http://www.w3.org/2000/svg"><g><path d="m256 8c-114.69 0-208 93.31-208 208 0 95.3 64.42 175.82 152 200.33v23.67a8 8 0 0 0 8 8h16v48a8 8 0 0 0 8 8h48a8 8 0 0 0 8-8v-48h16a8 8 0 0 0 8-8v-23.67c87.58-24.51 152-105.03 152-200.33 0-114.69-93.31-208-208-208zm16 480h-32v-40h32zm24-56h-80v-11.87a208.653 208.653 0 0 0 80 0zm-40-24c-105.87 0-192-86.13-192-192s86.13-192 192-192 192 86.13 192 192-86.13 192-192 192z"/><path d="m97.115 234.994a8 8 0 1 0 -15.888 1.883q.247 2.083.541 4.151a8 8 0 0 0 7.91 6.874 8.125 8.125 0 0 0 1.137-.081 8 8 0 0 0 6.792-9.048q-.267-1.882-.492-3.779z"/><path d="m123.8 112.017a8 8 0 0 0 11.286-.8q1.25-1.442 2.533-2.853a8 8 0 1 0 -11.844-10.764q-1.406 1.547-2.779 3.128a8 8 0 0 0 .804 11.289z"/><path d="m256 56q1.907 0 3.805.044h.189a8 8 0 0 0 .182-16q-2.082-.044-4.176-.044h-.009a8 8 0 0 0 .009 16z"/><path d="m186.208 71.142a7.976 7.976 0 0 0 3.323-.727q1.725-.789 3.47-1.538a8 8 0 1 0 -6.307-14.7q-1.921.825-3.819 1.692a8 8 0 0 0 3.333 15.277z"/><path d="m410.59 174.583a8 8 0 0 0 15.455-4.141q-.541-2.025-1.129-4.028a8 8 0 1 0 -15.355 4.5q.539 1.823 1.029 3.669z"/><path d="m322.47 70.416q1.734.792 3.446 1.626a8 8 0 0 0 7.01-14.382q-1.89-.921-3.806-1.8a8 8 0 1 0 -6.65 14.552z"/><path d="m379.387 114.132a8 8 0 0 0 12.334-10.193q-1.335-1.614-2.707-3.195a8 8 0 1 0 -12.086 10.485q1.247 1.437 2.459 2.903z"/><path d="m98.373 157.206a8 8 0 0 0 -10.056 5.185q-.636 1.992-1.228 4.007a8 8 0 1 0 15.353 4.5q.537-1.83 1.116-3.641a8 8 0 0 0 -5.185-10.051z"/><path d="m412.187 278.529a8 8 0 0 0 -10.6 3.946q-.8 1.738-1.631 3.455a8 8 0 1 0 14.389 7q.916-1.885 1.791-3.8a8 8 0 0 0 -3.949-10.601z"/><path d="m360.766 336.935q-1.437 1.245-2.905 2.459a8 8 0 0 0 10.194 12.333q1.614-1.335 3.195-2.706a8 8 0 1 0 -10.484-12.086z"/><path d="m424 208a8 8 0 0 0 -8 8q0 1.909-.045 3.811a8 8 0 0 0 7.81 8.186h.192a8 8 0 0 0 7.994-7.812q.049-2.085.049-4.185a8 8 0 0 0 -8-8z"/><path d="m301.078 369.564q-1.824.535-3.666 1.027a8 8 0 1 0 4.133 15.457q2.026-.541 4.035-1.13a8 8 0 0 0 -4.5-15.354z"/><path d="m233.206 374.39q-1.888-.27-3.763-.583a8 8 0 1 0 -2.636 15.781q2.064.345 4.141.641a8 8 0 1 0 2.258-15.839z"/><path d="m169.483 350.616q-1.6-1.033-3.181-2.1a8 8 0 1 0 -8.981 13.242q1.737 1.178 3.5 2.313a8 8 0 1 0 8.662-13.452z"/><path d="m119.345 299.265a8 8 0 1 0 -13.653 8.343q1.091 1.784 2.221 3.54a8 8 0 1 0 13.453-8.66q-1.027-1.597-2.021-3.223z"/><path d="m256 72c-79.4 0-144 64.6-144 144s64.6 144 144 144 144-64.6 144-144-64.6-144-144-144zm0 272a128 128 0 1 1 128-128 128.145 128.145 0 0 1 -128 128z"/></g></svg>